# xmcd CD database file
#
# Track frame offsets:
#	150
#	9763
#	23555
#	37720
#	50671
#	62671
#	76250
#	89076
#	102596
#	113403
#	130701
#	144486
#	164430
#	173194
#	186253
#	200900
#	211970
#	225842
#	239748
#	253744
#
# Disc length: 3563 seconds
#
# Revision: 0
# Processed by: cddbd v1.5.2PL0 Copyright (c) Steve Scherf et al.
# Submitted via: CDex 1.70beta2
#
DISCID=0a0de914
DTITLE=Ella Fitzgerald - The remastered Ella Fitzgerald Collection
DYEAR=2006
DGENRE=Jazz
TTITLE0=Undecided
TTITLE1=My heart belongs to Daddy
TTITLE2=Rock it for me
TTITLE3=Shine
TTITLE4=My last affair
TTITLE5=The starlit hour
TTITLE6=Organ gender's swing
TTITLE7=Basin street blues
TTITLE8=Flying home
TTITLE9=Someone to watch over me
TTITLE10=My happiness
TTITLE11=Moanin' low
TTITLE12=Lover come back to me
TTITLE13=Little white lies
TTITLE14=Looking for a boy
TTITLE15=That old black magic
TTITLE16=Stairway to the stars
TTITLE17=Dream little dream of me
TTITLE18=Taking a chance on love
TTITLE19=My man
EXTD=YEAR: 2006
EXTT0=
EXTT1=
EXTT2=
EXTT3=
EXTT4=
EXTT5=
EXTT6=
EXTT7=
EXTT8=
EXTT9=
EXTT10=
EXTT11=
EXTT12=
EXTT13=
EXTT14=
EXTT15=
EXTT16=
EXTT17=
EXTT18=
EXTT19=
PLAYORDER=
